<svg width="29" height="36" viewBox="0 0 29 36" fill="none" xmlns="http://www.w3.org/2000/svg">
<path d="M8.41332 21.2417C9.59407 21.2417 10.5513 20.2845 10.5513 19.1038C10.5513 17.923 9.59407 16.9658 8.41332 16.9658C7.23257 16.9658 6.27539 17.923 6.27539 19.1038C6.27539 20.2845 7.23257 21.2417 8.41332 21.2417Z" stroke="#4B508C" stroke-width="2.13793" stroke-linecap="round" stroke-linejoin="round"/>
<path d="M16.9661 21.2417C18.1468 21.2417 19.104 20.2845 19.104 19.1038C19.104 17.923 18.1468 16.9658 16.9661 16.9658C15.7853 16.9658 14.8281 17.923 14.8281 19.1038C14.8281 20.2845 15.7853 21.2417 16.9661 21.2417Z" stroke="#4B508C" stroke-width="2.13793" stroke-linecap="round" stroke-linejoin="round"/>
<path d="M2 2H4.13793L6.27586 14.8276C6.50646 15.4834 6.9439 16.0465 7.5223 16.4321C8.1007 16.8177 8.78873 17.0049 9.48276 16.9655H16.9655C17.6595 17.0049 18.3476 16.8177 18.926 16.4321C19.5044 16.0465 19.9418 15.4834 20.1724 14.8276L21.2414 7.34483H4.9931" stroke="#4B508C" stroke-width="2.13793" stroke-linecap="round" stroke-linejoin="round"/>
<path d="M8.41332 21.2417C9.59407 21.2417 10.5513 20.2845 10.5513 19.1038C10.5513 17.923 9.59407 16.9658 8.41332 16.9658C7.23257 16.9658 6.27539 17.923 6.27539 19.1038C6.27539 20.2845 7.23257 21.2417 8.41332 21.2417Z" stroke="#4B508C" stroke-width="2.13793" stroke-linecap="round" stroke-linejoin="round"/>
<path d="M16.9661 21.2417C18.1468 21.2417 19.104 20.2845 19.104 19.1038C19.104 17.923 18.1468 16.9658 16.9661 16.9658C15.7853 16.9658 14.8281 17.923 14.8281 19.1038C14.8281 20.2845 15.7853 21.2417 16.9661 21.2417Z" stroke="#4B508C" stroke-width="2.13793" stroke-linecap="round" stroke-linejoin="round"/>
<path d="M2 2H4.13793L6.27586 14.8276C6.50646 15.4834 6.9439 16.0465 7.5223 16.4321C8.1007 16.8177 8.78873 17.0049 9.48276 16.9655H16.9655C17.6595 17.0049 18.3476 16.8177 18.926 16.4321C19.5044 16.0465 19.9418 15.4834 20.1724 14.8276L21.2414 7.34483H4.9931" stroke="#4B508C" stroke-width="2.13793" stroke-linecap="round" stroke-linejoin="round"/>
<circle cx="22.0518" cy="26.0044" r="6.94828" fill="#4B508C"/>
<path d="M22.6711 21.3658V29.9175H21.6356V22.4514H21.5854L19.4976 23.8377V22.7855L21.6356 21.3658H22.6711Z" fill="white"/>
</svg>
