<svg width="21" height="21" viewBox="0 0 21 21" fill="none" xmlns="http://www.w3.org/2000/svg">
<path fill-rule="evenodd" clip-rule="evenodd" d="M11.8125 0H9.1875V2.73388C7.99095 2.93463 6.8859 3.4052 5.93705 4.08089L4.00347 2.1473L2.14731 4.00346L4.0809 5.93704C3.4052 6.88589 2.93463 7.99095 2.73388 9.1875H0V11.8125H2.73388C2.93463 13.009 3.4052 14.1141 4.08089 15.0629L2.14729 16.9965L4.00344 18.8527L5.93704 16.9191C6.88589 17.5948 7.99095 18.0654 9.1875 18.2661V21H11.8125V18.2661C13.0091 18.0654 14.1141 17.5948 15.063 16.9191L16.9966 18.8527L18.8527 16.9965L16.9191 15.0629C17.5948 14.1141 18.0654 13.009 18.2661 11.8125H21V9.1875H18.2661C18.0654 7.99095 17.5948 6.88589 16.9191 5.93704L18.8527 4.00346L16.9965 2.1473L15.0629 4.08089C14.1141 3.4052 13.009 2.93463 11.8125 2.73388V0ZM10.5 13.125C11.9497 13.125 13.125 11.9497 13.125 10.5C13.125 9.05025 11.9497 7.875 10.5 7.875C9.05025 7.875 7.875 9.05025 7.875 10.5C7.875 11.9497 9.05025 13.125 10.5 13.125Z" fill="#4B508C"/>
</svg>
