<svg width="93" height="139" viewBox="0 0 93 139" fill="none" xmlns="http://www.w3.org/2000/svg">
<path d="M84.6201 133.424C84.6201 135.544 81.5941 135.592 80.0073 135.955C77.269 136.581 74.1037 136.412 71.2943 136.307C69.0572 136.225 66.6685 134.747 64.7274 133.777C63.3483 133.087 62.4151 132.782 61.2678 131.695C60.146 130.632 59.4781 129.52 58.513 128.379C55.2176 124.485 53.585 119.12 51.8981 114.397C50.599 110.759 50.3124 106.752 50.3124 102.865C50.3124 95.7675 49.7358 88.6061 49.7358 81.3864C49.7358 78.1569 50.6124 74.4174 52.1864 71.5842C53.0596 70.0124 53.6104 67.9945 55.0694 66.8272C55.4014 66.5617 56.1794 65.3749 56.3667 64.9533C56.706 64.19 57.4394 64.1053 57.8082 63.3676" stroke="#73562B" stroke-width="3.51773" stroke-linecap="round"/>
<path d="M10.9966 133.776C10.9966 135.895 14.0226 135.944 15.6094 136.307C18.3477 136.933 21.513 136.763 24.3224 136.659C26.5595 136.576 28.9482 135.099 30.8893 134.129C32.2684 133.439 33.2016 133.133 34.3489 132.046C35.4707 130.984 36.1386 129.872 37.1037 128.731C40.3991 124.836 42.0317 119.472 43.7186 114.748C45.0177 111.111 45.3043 107.104 45.3043 103.216C45.3043 96.1193 45.8809 88.9578 45.8809 81.7382C45.8809 78.5087 45.0043 74.7692 43.4303 71.936C42.5571 70.3641 42.0063 68.3462 40.5473 67.179C40.2153 66.9135 39.4373 65.7266 39.25 65.3051C38.9107 64.5418 38.1773 64.4571 37.8085 63.7194" stroke="#73562B" stroke-width="3.51773" stroke-linecap="round"/>
<rect x="41.9492" y="67.8043" width="10.9929" height="69.1674" fill="#73562B"/>
<rect x="31.5718" y="132.179" width="33.5944" height="4.08937" fill="#73562B"/>
<rect x="26.8228" y="134.377" width="43.3121" height="3.60568" fill="#73562B"/>
<rect x="52.3701" y="126.99" width="6.06809" height="9.98157" fill="#73562B"/>
<rect x="52.3701" y="130.904" width="7.6071" height="6.06809" fill="#73562B"/>
<rect x="52.3701" y="122.329" width="3.51773" height="4.661" fill="#73562B"/>
<rect x="51.3589" y="121.406" width="3.73759" height="5.5844" fill="#73562B"/>
<rect x="35.6172" y="128.705" width="7.6071" height="8.26667" fill="#73562B"/>
<rect x="38.959" y="124.22" width="5.10071" height="12.7518" fill="#73562B"/>
<rect width="11.7404" height="7.73901" transform="matrix(1 0 0 -1 41.8608 72.993)" fill="#73562B"/>
<rect width="3.78156" height="5.01277" transform="matrix(1 0 0 -1 41.0693 70.2667)" fill="#73562B"/>
<rect width="6.72767" height="2.81419" transform="matrix(1 0 0 -1 48.3687 67.8043)" fill="#73562B"/>
<rect width="2.99007" height="5.01277" transform="matrix(1 0 0 -1 50.6113 70.2667)" fill="#73562B"/>
<path d="M83.1067 35.9701C83.1067 56.4186 67.1506 72.9955 47.4677 72.9955C27.7848 72.9955 11.8286 56.4186 11.8286 35.9701C11.8286 15.5215 27.7848 2.19858 47.4677 2.19858C67.1506 2.19858 83.1067 15.5215 83.1067 35.9701Z" fill="#339D51"/>
<circle cx="55.1405" cy="71.3221" r="2.19858" fill="#339D51"/>
<circle cx="52.8099" cy="71.7618" r="2.19858" fill="#339D51"/>
<circle cx="58.2186" cy="70.4426" r="2.19858" fill="#339D51"/>
<circle cx="61.2967" cy="69.5632" r="2.19858" fill="#339D51"/>
<circle cx="43.8714" cy="71.9256" r="2.19858" transform="rotate(19.3173 43.8714 71.9256)" fill="#339D51"/>
<circle cx="47.0672" cy="72.1136" r="2.19858" transform="rotate(19.3173 47.0672 72.1136)" fill="#339D51"/>
<circle cx="50.263" cy="72.3021" r="2.19858" transform="rotate(19.3173 50.263 72.3021)" fill="#339D51"/>
<circle cx="69.9233" cy="10.0779" r="2.19858" transform="rotate(51.9468 69.9233 10.0779)" fill="#339D51"/>
<circle cx="72.5131" cy="11.9596" r="2.19858" transform="rotate(51.9468 72.5131 11.9596)" fill="#339D51"/>
<circle cx="75.1029" cy="13.8413" r="2.19858" transform="rotate(51.9468 75.1029 13.8413)" fill="#339D51"/>
<circle cx="77.5303" cy="17.2012" r="2.19858" transform="rotate(78.1695 77.5303 17.2012)" fill="#339D51"/>
<circle cx="79.022" cy="20.0336" r="2.19858" transform="rotate(78.1695 79.022 20.0336)" fill="#339D51"/>
<circle cx="80.5137" cy="22.8658" r="2.19858" transform="rotate(78.1695 80.5137 22.8658)" fill="#339D51"/>
<circle cx="30.4795" cy="6.14664" r="2.19858" transform="rotate(-10.3456 30.4795 6.14664)" fill="#339D51"/>
<circle cx="33.3497" cy="4.7287" r="2.19858" transform="rotate(-10.3456 33.3497 4.7287)" fill="#339D51"/>
<circle cx="36.2198" cy="3.31061" r="2.19858" transform="rotate(-10.3456 36.2198 3.31061)" fill="#339D51"/>
<circle cx="40.3228" cy="2.72409" r="2.19858" transform="rotate(15.8771 40.3228 2.72409)" fill="#339D51"/>
<circle cx="43.524" cy="2.72012" r="2.19858" transform="rotate(15.8771 43.524 2.72012)" fill="#339D51"/>
<circle cx="46.7251" cy="2.71619" r="2.19858" transform="rotate(15.8771 46.7251 2.71619)" fill="#339D51"/>
<circle cx="50.8046" cy="3.27132" r="2.19858" transform="rotate(16.9355 50.8046 3.27132)" fill="#339D51"/>
<circle cx="54.0053" cy="3.32665" r="2.19858" transform="rotate(16.9355 54.0053 3.32665)" fill="#339D51"/>
<circle cx="57.206" cy="3.38195" r="2.19858" transform="rotate(16.9355 57.206 3.38195)" fill="#339D51"/>
<circle cx="61.1219" cy="4.74096" r="2.19858" transform="rotate(43.1581 61.1219 4.74096)" fill="#339D51"/>
<circle cx="63.9691" cy="6.20492" r="2.19858" transform="rotate(43.1581 63.9691 6.20492)" fill="#339D51"/>
<circle cx="66.8158" cy="7.66885" r="2.19858" transform="rotate(43.1581 66.8158 7.66885)" fill="#339D51"/>
<circle cx="82.0904" cy="26.4665" r="2.19858" transform="rotate(99.9641 82.0904 26.4665)" fill="#339D51"/>
<circle cx="82.4244" cy="29.6503" r="2.19858" transform="rotate(99.9641 82.4244 29.6503)" fill="#339D51"/>
<circle cx="82.7579" cy="32.834" r="2.19858" transform="rotate(99.9641 82.7579 32.834)" fill="#339D51"/>
<circle cx="82.4778" cy="43.1027" r="2.19858" transform="rotate(-64.3943 82.4778 43.1027)" fill="#339D51"/>
<circle cx="83.0149" cy="39.9469" r="2.19858" transform="rotate(-64.3943 83.0149 39.9469)" fill="#339D51"/>
<circle cx="83.552" cy="36.7911" r="2.19858" transform="rotate(-64.3943 83.552 36.7911)" fill="#339D51"/>
<circle cx="78.6424" cy="52.8141" r="2.19858" transform="rotate(-49.6711 78.6424 52.8141)" fill="#339D51"/>
<circle cx="79.9637" cy="49.8986" r="2.19858" transform="rotate(-49.6711 79.9637 49.8986)" fill="#339D51"/>
<circle cx="81.2855" cy="46.9827" r="2.19858" transform="rotate(-49.6711 81.2855 46.9827)" fill="#339D51"/>
<circle cx="73.1982" cy="61.4708" r="2.19858" transform="rotate(-35.1459 73.1982 61.4708)" fill="#339D51"/>
<circle cx="75.2089" cy="58.9799" r="2.19858" transform="rotate(-35.1459 75.2089 58.9799)" fill="#339D51"/>
<circle cx="77.2192" cy="56.489" r="2.19858" transform="rotate(-35.1459 77.2192 56.489)" fill="#339D51"/>
<circle cx="64.677" cy="67.6312" r="2.19858" transform="rotate(-12.871 64.677 67.6312)" fill="#339D51"/>
<circle cx="67.4817" cy="66.0882" r="2.19858" transform="rotate(-12.871 67.4817 66.0882)" fill="#339D51"/>
<circle cx="70.2869" cy="64.5453" r="2.19858" transform="rotate(-12.871 70.2869 64.5453)" fill="#339D51"/>
<circle r="2.19858" transform="matrix(-1 0 0 1 40.2707 71.3221)" fill="#339D51"/>
<circle r="2.19858" transform="matrix(-1 0 0 1 37.1925 70.4426)" fill="#339D51"/>
<circle r="2.19858" transform="matrix(-1 0 0 1 34.1144 69.5632)" fill="#339D51"/>
<circle r="2.19858" transform="matrix(-0.616392 0.787439 0.787439 0.616392 25.4874 10.0779)" fill="#339D51"/>
<circle r="2.19858" transform="matrix(-0.616392 0.787439 0.787439 0.616392 27.315 7.70348)" fill="#339D51"/>
<circle r="2.19858" transform="matrix(-0.616392 0.787439 0.787439 0.616392 22.898 11.9596)" fill="#339D51"/>
<circle r="2.19858" transform="matrix(-0.616392 0.787439 0.787439 0.616392 20.3082 13.8413)" fill="#339D51"/>
<circle r="2.19858" transform="matrix(-0.205017 0.978758 0.978758 0.205017 17.8808 17.2012)" fill="#339D51"/>
<circle r="2.19858" transform="matrix(-0.205017 0.978758 0.978758 0.205017 16.3886 20.0336)" fill="#339D51"/>
<circle r="2.19858" transform="matrix(-0.205017 0.978758 0.978758 0.205017 14.8969 22.8658)" fill="#339D51"/>
<circle r="2.19858" transform="matrix(0.173031 0.984916 0.984916 -0.173031 13.3203 26.4665)" fill="#339D51"/>
<circle r="2.19858" transform="matrix(0.173031 0.984916 0.984916 -0.173031 12.9868 29.6503)" fill="#339D51"/>
<circle r="2.19858" transform="matrix(0.173031 0.984916 0.984916 -0.173031 12.6533 32.834)" fill="#339D51"/>
<circle r="2.19858" transform="matrix(-0.432175 -0.90179 -0.90179 0.432175 12.9334 43.1027)" fill="#339D51"/>
<circle r="2.19858" transform="matrix(-0.432175 -0.90179 -0.90179 0.432175 12.3963 39.9469)" fill="#339D51"/>
<circle r="2.19858" transform="matrix(-0.432175 -0.90179 -0.90179 0.432175 11.8592 36.7911)" fill="#339D51"/>
<circle r="2.19858" transform="matrix(-0.647174 -0.762342 -0.762342 0.647174 16.7687 52.8141)" fill="#339D51"/>
<circle r="2.19858" transform="matrix(-0.647174 -0.762342 -0.762342 0.647174 15.4474 49.8986)" fill="#339D51"/>
<circle r="2.19858" transform="matrix(-0.647174 -0.762342 -0.762342 0.647174 14.1257 46.9827)" fill="#339D51"/>
<circle r="2.19858" transform="matrix(-0.817689 -0.57566 -0.57566 0.817689 22.213 61.4708)" fill="#339D51"/>
<circle r="2.19858" transform="matrix(-0.817689 -0.57566 -0.57566 0.817689 20.2022 58.9799)" fill="#339D51"/>
<circle r="2.19858" transform="matrix(-0.817689 -0.57566 -0.57566 0.817689 18.1915 56.489)" fill="#339D51"/>
<circle r="2.19858" transform="matrix(-0.974874 -0.222757 -0.222757 0.974874 30.7341 67.6312)" fill="#339D51"/>
<circle r="2.19858" transform="matrix(-0.974874 -0.222757 -0.222757 0.974874 27.9289 66.0882)" fill="#339D51"/>
<circle r="2.19858" transform="matrix(-0.974874 -0.222757 -0.222757 0.974874 25.1242 64.5453)" fill="#339D51"/>
<ellipse cx="73.1467" cy="73.0134" rx="1.16525" ry="1.14326" fill="#4B568C"/>
<ellipse cx="77.2142" cy="75.187" rx="1.45107" ry="1.42369" fill="#4B568C"/>
<rect x="73.9165" y="68.6162" width="1.13638" height="4.39717" transform="rotate(9.78808 73.9165 68.6162)" fill="#4B568C"/>
<rect x="79.105" y="68.3277" width="1.11002" height="5.21344" transform="rotate(92.3695 79.105 68.3277)" fill="#4B568C"/>
<rect width="1.13638" height="5.88046" transform="matrix(-0.996946 -0.0780952 -0.0780952 0.996946 79.0864 69.0128)" fill="#4B568C"/>
<ellipse cx="87.0417" cy="9.47435" rx="1.16525" ry="1.14326" fill="#4B568C"/>
<ellipse cx="91.1093" cy="11.648" rx="1.45107" ry="1.42369" fill="#4B568C"/>
<rect x="87.8115" y="5.07718" width="1.13638" height="4.39717" transform="rotate(9.78808 87.8115 5.07718)" fill="#4B568C"/>
<rect x="93" y="4.7886" width="1.11002" height="5.21344" transform="rotate(92.3695 93 4.7886)" fill="#4B568C"/>
<rect width="1.13638" height="5.88046" transform="matrix(-0.996946 -0.0780952 -0.0780952 0.996946 92.9814 5.47379)" fill="#4B568C"/>
<ellipse cx="1.16525" cy="51.8631" rx="1.16525" ry="1.14326" fill="#4B568C"/>
<ellipse cx="5.2328" cy="54.0367" rx="1.45107" ry="1.42369" fill="#4B568C"/>
<rect x="1.93457" y="47.4659" width="1.13638" height="4.39717" transform="rotate(9.78808 1.93457 47.4659)" fill="#4B568C"/>
<rect x="7.12354" y="47.1773" width="1.11002" height="5.21344" transform="rotate(92.3695 7.12354 47.1773)" fill="#4B568C"/>
<rect width="1.13638" height="5.88046" transform="matrix(-0.996946 -0.0780952 -0.0780952 0.996946 7.10449 47.8625)" fill="#4B568C"/>
</svg>
